# xmcd
#
# Track frame offsets:
#	150
#	11187
#	22152
#	36602
#	47012
#	59404
#	69816
#	79768
#	93352
#	108204
#	121151
#	130120
#	144167
#	158509
#	175138
#	188337
#	200604
#	215643
#	230490
#	243109
#	260734
#	275831
#	289968
#	304720
#
# Disc length: 4245 seconds
#
# Revision: 0
# Processed by: cddbd v1.5.2PL0 Copyright (c) Steve Scherf et al.
# Submitted via: EZCDAudioConverter 2.4.0.1
#
DISCID=56109318
DTITLE=Rose Maddox - The One Rose and Glorybound Train
DYEAR=1960
DGENRE=Country
TTITLE0=Honky-Tonkin'
TTITLE1=Why Don't You Haul Off And Love Me
TTITLE2=Philadelphia Lawyer
TTITLE3=Move It On Over
TTITLE4=On The Banks Of The Old Pontchartrain
TTITLE5=Whoa Sailor
TTITLE6=Sally Let Your Bangs Hang Down
TTITLE7=At The First Fall Of Snow
TTITLE8=Live And Let Live
TTITLE9=Tramp On The Street
TTITLE10=Chocolate Ice Cream Cone
TTITLE11=Gathering Flowers For The Master's Bouquet
TTITLE12=The Glory Bound Train
TTITLE13=This World Is Not My Home
TTITLE14=Drifting Too Far From The Shore
TTITLE15=The Great Speckled Bird
TTITLE16=An Empty Mansion
TTITLE17=Kneel At The Cross
TTITLE18=Smoke  Fire And Brimstone
TTITLE19=When I Spend My Vacation In Heaven
TTITLE20=Wait A Little Longer  Please Jesus
TTITLE21=How Beautiful Heaven Must Be
TTITLE22=I'll Reap My Harvest In Heaven
TTITLE23=Will The Circle Be Unbroken
EXTD=
EXTT0=
EXTT1=
EXTT2=
EXTT3=
EXTT4=
EXTT5=
EXTT6=
EXTT7=
EXTT8=
EXTT9=
EXTT10=
EXTT11=
EXTT12=
EXTT13=
EXTT14=
EXTT15=
EXTT16=
EXTT17=
EXTT18=
EXTT19=
EXTT20=
EXTT21=
EXTT22=
EXTT23=
PLAYORDER=
